<svg width="135" height="135" viewBox="0 0 135 135" fill="none" xmlns="http://www.w3.org/2000/svg">
<path d="M116.388 36.976V126.303C116.388 131.107 112.491 135 107.691 135H27.309C22.5052 135 18.6123 131.107 18.6123 126.303V8.69669C18.612 3.89285 22.5049 0 27.309 0H79.4119L116.388 36.976Z" fill="#518EF8"/>
<path d="M84.457 36.1726L116.388 49.3275V36.976L98.2842 31.6306L84.457 36.1726Z" fill="#3A5BBC"/>
<path d="M116.388 36.976H88.1088C83.3047 36.976 79.4121 33.0832 79.4121 28.2793V0L116.388 36.976Z" fill="#ACD1FC"/>
<path d="M53.8168 101.485C59.3579 101.485 63.8641 96.9784 63.8641 91.4368V65.9521L86.4705 74.1715V92.836C84.9505 91.9303 83.2161 91.4473 81.4469 91.4368C75.9058 91.4368 71.3996 95.9434 71.3996 101.485C71.3996 107.027 75.9058 111.533 81.4469 111.533C86.9879 111.533 91.4941 107.027 91.4941 101.485V72.4131C91.4945 71.8977 91.336 71.3947 91.0403 70.9726C90.7445 70.5505 90.3259 70.2299 89.8414 70.0543L62.2113 60.0061C61.832 59.8674 61.4249 59.8223 61.0244 59.8747C60.624 59.9271 60.2421 60.0753 59.9112 60.3069C59.5803 60.5384 59.3102 60.8464 59.1238 61.2047C58.9373 61.563 58.8402 61.961 58.8405 62.3649V82.7878C57.3205 81.8821 55.5861 81.3991 53.8168 81.3886C48.2757 81.3886 43.7695 85.8952 43.7695 91.4368C43.7695 96.9784 48.2757 101.485 53.8168 101.485Z" fill="white"/>
</svg>
