<svg width="23" height="22" viewBox="0 0 23 22" fill="none" xmlns="http://www.w3.org/2000/svg">
<path d="M6.78062 15.2557H6.78059C6.0462 15.2559 5.34196 15.5477 4.82275 16.0671L2.45961 18.4302V3.61922C2.45961 3.31167 2.58178 3.01672 2.79925 2.79925C3.01672 2.58178 3.31167 2.45961 3.61922 2.45961H19.3345C19.6421 2.45961 19.937 2.58178 20.1545 2.79925C20.372 3.01672 20.4942 3.31167 20.4942 3.61922V14.0961C20.4942 14.4036 20.372 14.6986 20.1545 14.9161C19.937 15.1335 19.6421 15.2557 19.3345 15.2557H6.78062ZM0.85 20.3731V20.3731L2.11841 20.8354L2.22447 20.9414L2.2245 20.9414C2.22454 20.9414 2.22457 20.9413 2.22461 20.9413L5.96079 17.2051L5.96081 17.2051C6.17822 16.9876 6.47311 16.8654 6.78062 16.8653C6.78063 16.8653 6.78064 16.8653 6.78065 16.8653H19.3345C20.069 16.8653 20.7733 16.5736 21.2927 16.0542C21.812 15.5349 22.1038 14.8305 22.1038 14.0961V3.61922C22.1038 2.88478 21.812 2.18042 21.2927 1.66109C20.7733 1.14176 20.069 0.85 19.3345 0.85H3.61922C2.88478 0.85 2.18042 1.14176 1.66109 1.66109C1.14176 2.18042 0.85 2.88478 0.85 3.61922V20.3731Z" fill="#424242" stroke="#424242" stroke-width="0.3"/>
<path d="M10.2536 7.23376C9.99847 6.83649 9.62132 6.53274 9.1788 6.36818C8.73628 6.20362 8.2523 6.18714 7.79961 6.3212C7.34691 6.45527 6.94996 6.73264 6.66842 7.11164C6.38687 7.49063 6.23594 7.95076 6.23831 8.42289C6.23854 8.81385 6.34376 9.19758 6.54298 9.53398C6.74219 9.87038 7.02809 10.1471 7.37081 10.3353C7.71352 10.5234 8.10047 10.6161 8.49123 10.6036C8.882 10.5911 9.26223 10.4739 9.59222 10.2642C9.42066 10.7736 9.10112 11.3171 8.57465 11.8619C8.47393 11.9661 8.41872 12.1061 8.42118 12.251C8.42363 12.3959 8.48355 12.5339 8.58775 12.6346C8.69195 12.7353 8.83189 12.7905 8.9768 12.7881C9.1217 12.7856 9.25969 12.7257 9.36042 12.6215C11.3065 10.6047 11.0537 8.41241 10.2536 7.23638V7.23376ZM15.492 7.23376C15.2369 6.83649 14.8598 6.53274 14.4172 6.36818C13.9747 6.20362 13.4907 6.18714 13.038 6.3212C12.5854 6.45527 12.1884 6.73264 11.9069 7.11164C11.6253 7.49063 11.4744 7.95076 11.4767 8.42289C11.477 8.81385 11.5822 9.19758 11.7814 9.53398C11.9806 9.87038 12.2665 10.1471 12.6092 10.3353C12.952 10.5234 13.3389 10.6161 13.7297 10.6036C14.1204 10.5911 14.5007 10.4739 14.8307 10.2642C14.6591 10.7736 14.3396 11.3171 13.8131 11.8619C13.7124 11.9661 13.6572 12.1061 13.6596 12.251C13.6621 12.3959 13.722 12.5339 13.8262 12.6346C13.9304 12.7353 14.0703 12.7905 14.2152 12.7881C14.3601 12.7856 14.4981 12.7257 14.5989 12.6215C16.5449 10.6047 16.2922 8.41241 15.492 7.23638V7.23376Z" fill="#424242"/>
</svg>
