<svg width="17" height="20" viewBox="0 0 17 20" fill="none" xmlns="http://www.w3.org/2000/svg">
<path d="M13.6319 3.07575C12.9016 2.34957 11.9146 1.94034 10.8847 1.9367C9.85477 1.93306 8.8649 2.3353 8.12947 3.0563L1.65491 9.41809C1.47133 9.59884 1.22362 9.6995 0.965994 9.69804C0.708369 9.69658 0.461813 9.59313 0.280286 9.41031C0.190564 9.31987 0.119614 9.21257 0.0715152 9.0946C0.0234169 8.97663 -0.000879208 8.85032 2.43041e-05 8.72292C0.000927816 8.59553 0.0270131 8.46957 0.0767799 8.35229C0.126547 8.23502 0.199012 8.12874 0.290007 8.03957L6.76262 1.67973C7.86385 0.598785 9.34666 -0.00470357 10.8898 2.76096e-05C12.4328 0.00475878 13.9119 0.617329 15.0065 1.70501C15.5495 2.24475 15.9804 2.88653 16.2745 3.59343C16.5686 4.30034 16.72 5.05841 16.72 5.82403C16.72 6.58966 16.5686 7.34773 16.2745 8.05463C15.9804 8.76153 15.5495 9.40331 15.0065 9.94306L6.58375 18.3308C5.86755 19.0427 4.89875 19.4423 3.88893 19.4423C2.8791 19.4423 1.9103 19.0427 1.19411 18.3308C0.840392 17.979 0.559693 17.5608 0.368152 17.1002C0.176611 16.6395 0.0780065 16.1456 0.0780065 15.6467C0.0780065 15.1478 0.176611 14.6539 0.368152 14.1932C0.559693 13.7326 0.840392 13.3144 1.19411 12.9626L9.04913 5.14061C9.23161 4.95942 9.47833 4.85774 9.73547 4.85774C9.99262 4.85774 10.2393 4.95942 10.4218 5.14061C10.5119 5.23038 10.5833 5.33704 10.6321 5.45449C10.6809 5.57193 10.706 5.69784 10.706 5.825C10.706 5.95217 10.6809 6.07808 10.6321 6.19552C10.5833 6.31296 10.5119 6.41963 10.4218 6.5094L2.56874 14.3314C2.39538 14.5037 2.2578 14.7087 2.16392 14.9344C2.07005 15.1602 2.02172 15.4022 2.02172 15.6467C2.02172 15.8912 2.07005 16.1332 2.16392 16.359C2.2578 16.5847 2.39538 16.7896 2.56874 16.962C2.91973 17.312 3.39519 17.5086 3.89087 17.5086C4.38656 17.5086 4.86202 17.312 5.213 16.962L13.6319 8.57426C13.9942 8.21397 14.2818 7.78559 14.478 7.31377C14.6742 6.84196 14.7753 6.336 14.7753 5.825C14.7753 5.31401 14.6742 4.80805 14.478 4.33623C14.2818 3.86441 13.9942 3.43604 13.6319 3.07575Z" fill="#424242"/>
</svg>
