<svg width="134" height="135" viewBox="0 0 134 135" fill="none" xmlns="http://www.w3.org/2000/svg">
<path d="M115.526 36.976V126.303C115.526 131.107 111.658 135 106.894 135H27.1069C22.3386 135 18.4746 131.107 18.4746 126.303V8.69669C18.4743 3.89285 22.3384 0 27.1069 0H78.8238L115.526 36.976Z" fill="#FFC350"/>
<path d="M89.0344 67.7778H44.9615C43.4273 67.7778 42.1836 69.0215 42.1836 70.5558C42.1836 72.09 43.4273 73.3337 44.9615 73.3337H89.0344C90.5686 73.3337 91.8123 72.09 91.8123 70.5558C91.8123 69.0215 90.5686 67.7778 89.0344 67.7778Z" fill="white"/>
<path d="M89.0344 80.1858H44.9615C43.4273 80.1858 42.1836 81.4295 42.1836 82.9637C42.1836 84.4979 43.4273 85.7416 44.9615 85.7416H89.0344C90.5686 85.7416 91.8123 84.4979 91.8123 82.9637C91.8123 81.4295 90.5686 80.1858 89.0344 80.1858Z" fill="white"/>
<path d="M89.0344 92.5938H44.9615C43.4273 92.5938 42.1836 93.8375 42.1836 95.3717C42.1836 96.9059 43.4273 98.1496 44.9615 98.1496H89.0344C90.5686 98.1496 91.8123 96.9059 91.8123 95.3717C91.8123 93.8375 90.5686 92.5938 89.0344 92.5938Z" fill="white"/>
<path d="M74.6998 105.002H44.9615C43.4273 105.002 42.1836 106.246 42.1836 107.78C42.1836 109.314 43.4273 110.558 44.9615 110.558H74.6998C76.234 110.558 77.4777 109.314 77.4777 107.78C77.4777 106.246 76.234 105.002 74.6998 105.002Z" fill="white"/>
<path d="M83.8311 36.1726L115.526 49.3275V36.976L97.5558 31.6306L83.8311 36.1726Z" fill="#DEA332"/>
<path d="M115.526 36.976H87.4565C82.688 36.976 78.8242 33.0832 78.8242 28.2793V0L115.526 36.976Z" fill="#FFE0A4"/>
</svg>
