<svg width="19" height="10" viewBox="0 0 19 10" fill="none" xmlns="http://www.w3.org/2000/svg">
<path d="M10.57 0.35882C10.7863 0.152921 11.0741 0.0390913 11.3727 0.0413506C11.6713 0.04361 11.9574 0.161782 12.1705 0.37093C12.3836 0.580079 12.5072 0.863846 12.5151 1.16235C12.523 1.46086 12.4146 1.75076 12.2128 1.97088L6.08698 9.63198C5.98165 9.74544 5.85452 9.83649 5.71319 9.89968C5.57186 9.96288 5.41924 9.99694 5.26445 9.9998C5.10967 10.0027 4.95589 9.97429 4.81232 9.91637C4.66875 9.85845 4.53833 9.77217 4.42887 9.66269L0.366487 5.60031C0.253356 5.49489 0.162617 5.36777 0.0996822 5.22652C0.0367476 5.08528 0.00290708 4.9328 0.000179201 4.77819C-0.00254868 4.62358 0.025892 4.47001 0.0838048 4.32663C0.141718 4.18325 0.227916 4.05301 0.337257 3.94367C0.446599 3.83433 0.576844 3.74813 0.720222 3.69022C0.8636 3.6323 1.01717 3.60386 1.17178 3.60659C1.32639 3.60932 1.47887 3.64316 1.62011 3.70609C1.76136 3.76903 1.88848 3.85977 1.9939 3.9729L5.2088 7.18626L10.5393 0.392597C10.5489 0.380744 10.5591 0.369465 10.57 0.35882ZM9.15757 8.25022L10.57 9.66269C10.6795 9.77193 10.8098 9.858 10.9532 9.91579C11.0966 9.97357 11.2502 10.0019 11.4048 9.99901C11.5594 9.99614 11.7119 9.96217 11.8531 9.89911C11.9943 9.83605 12.1213 9.7452 12.2266 9.63198L18.3555 1.97088C18.4656 1.86218 18.5527 1.73241 18.6115 1.58932C18.6703 1.44623 18.6997 1.29275 18.6979 1.13804C18.6961 0.98334 18.6631 0.830587 18.601 0.688905C18.5388 0.547224 18.4488 0.419521 18.3362 0.313421C18.2236 0.207321 18.0907 0.125001 17.9456 0.0713771C17.8005 0.017753 17.6461 -0.00607573 17.4915 0.00131442C17.337 0.00870456 17.1855 0.0471623 17.0462 0.11439C16.9068 0.181618 16.7825 0.276237 16.6805 0.392597L11.3484 7.18626L10.6038 6.44011L9.15603 8.25022H9.15757Z" fill="#3A7DFF"/>
</svg>
