<svg width="135" height="135" viewBox="0 0 135 135" fill="none" xmlns="http://www.w3.org/2000/svg">
<g clip-path="url(#clip0_799_10489)">
<path d="M77.6926 3.43123C77.0253 2.88912 76.1467 2.68188 75.3077 2.86882L2.1828 19.7438C0.895819 20.0397 -0.0122673 21.1909 0.000125298 22.5113V118.136C0.000652642 119.524 1.01342 120.704 2.38504 120.915L75.5099 132.165C77.0453 132.401 78.4813 131.348 78.7173 129.813C78.7389 129.672 78.7499 129.529 78.7499 129.387V5.63632C78.7526 4.7786 78.3632 3.96675 77.6926 3.43123Z" fill="#4CAF50"/>
<path d="M132.188 120.949H75.9376C74.3843 120.949 73.125 119.689 73.125 118.136C73.125 116.583 74.3843 115.323 75.9376 115.323H129.375V19.6986H75.9376C74.3843 19.6986 73.125 18.4393 73.125 16.8861C73.125 15.3328 74.3843 14.0737 75.9376 14.0737H132.187C133.741 14.0737 135 15.333 135 16.8863V118.136C135 119.69 133.741 120.949 132.188 120.949Z" fill="#4CAF50"/>
<path d="M53.4374 92.8251C52.4676 92.8251 51.5663 92.3255 51.0524 91.5034L22.9274 46.5033C22.0628 45.2129 22.4082 43.4658 23.6986 42.6012C24.989 41.7366 26.7361 42.082 27.6007 43.3724C27.6347 43.423 27.6669 43.4747 27.6974 43.5275L55.8225 88.5276C56.6426 89.8467 56.2381 91.5809 54.9189 92.4012C54.4741 92.6775 53.961 92.8244 53.4374 92.8251Z" fill="#FAFAFA"/>
<path d="M25.3127 92.8241C23.7594 92.8209 22.5027 91.5592 22.5059 90.0059C22.5069 89.4807 22.6551 88.9663 22.9333 88.5209L51.0584 43.5208C51.8373 42.1769 53.5582 41.7189 54.9019 42.4978C56.2458 43.2767 56.7038 44.9977 55.925 46.3413C55.8944 46.3941 55.8622 46.4457 55.8282 46.4964L27.7034 91.4965C27.1897 92.3226 26.2856 92.8248 25.3127 92.8241Z" fill="#FAFAFA"/>
<path d="M98.4376 120.949C96.8843 120.949 95.625 119.69 95.625 118.136V16.8863C95.625 15.333 96.8843 14.0737 98.4376 14.0737C99.9909 14.0737 101.25 15.333 101.25 16.8863V118.136C101.25 119.69 99.9909 120.949 98.4376 120.949Z" fill="#4CAF50"/>
<path d="M132.188 104.074H75.9376C74.3843 104.074 73.125 102.815 73.125 101.261C73.125 99.708 74.3843 98.4487 75.9376 98.4487H132.188C133.741 98.4487 135 99.708 135 101.261C135 102.815 133.741 104.074 132.188 104.074Z" fill="#4CAF50"/>
<path d="M132.188 87.1989H75.9376C74.3843 87.1989 73.125 85.9396 73.125 84.3863C73.125 82.833 74.3843 81.5737 75.9376 81.5737H132.188C133.741 81.5737 135 82.833 135 84.3863C135 85.9399 133.741 87.1989 132.188 87.1989Z" fill="#4CAF50"/>
<path d="M132.188 70.3239H75.9376C74.3843 70.3239 73.125 69.0646 73.125 67.5113C73.125 65.958 74.3843 64.6987 75.9376 64.6987H132.188C133.741 64.6987 135 65.958 135 67.5113C135 69.0649 133.741 70.3239 132.188 70.3239Z" fill="#4CAF50"/>
<path d="M132.188 53.4489H75.9376C74.3843 53.4489 73.125 52.1896 73.125 50.6363C73.125 49.083 74.3843 47.8237 75.9376 47.8237H132.188C133.741 47.8237 135 49.083 135 50.6363C135 52.1896 133.741 53.4489 132.188 53.4489Z" fill="#4CAF50"/>
<path d="M132.188 36.5739H75.9376C74.3843 36.5739 73.125 35.3146 73.125 33.7613C73.125 32.208 74.3843 30.9487 75.9376 30.9487H132.188C133.741 30.9487 135 32.208 135 33.7613C135 35.3149 133.741 36.5739 132.188 36.5739Z" fill="#4CAF50"/>
</g>
<defs>
<clipPath id="clip0_799_10489">
<rect width="135" height="135" fill="white"/>
</clipPath>
</defs>
</svg>
