<svg width="21" height="21" viewBox="0 0 21 21" fill="none" xmlns="http://www.w3.org/2000/svg">
<path d="M1 4.8C1 3.79218 1.40036 2.82563 2.11299 2.11299C2.82563 1.40036 3.79218 1 4.8 1H16.2C17.2078 1 18.1744 1.40036 18.887 2.11299C19.5996 2.82563 20 3.79218 20 4.8V16.2C20 17.2078 19.5996 18.1744 18.887 18.887C18.1744 19.5996 17.2078 20 16.2 20H4.8C3.79218 20 2.82563 19.5996 2.11299 18.887C1.40036 18.1744 1 17.2078 1 16.2V4.8Z" stroke="#0198D7" stroke-width="2" stroke-linecap="round" stroke-linejoin="round"/>
<path d="M7.17578 9.5498C8.48746 9.5498 9.55078 8.48648 9.55078 7.1748C9.55078 5.86313 8.48746 4.7998 7.17578 4.7998C5.8641 4.7998 4.80078 5.86313 4.80078 7.1748C4.80078 8.48648 5.8641 9.5498 7.17578 9.5498Z" stroke="#0198D7" stroke-width="2" stroke-linecap="round" stroke-linejoin="round"/>
<path d="M12.9005 11.09L4.80078 20.0001H16.3271C17.3014 20.0001 18.2359 19.613 18.9248 18.9241C19.6137 18.2352 20.0008 17.3007 20.0008 16.3264V16.2001C20.0008 15.7574 19.8345 15.5873 19.5353 15.2596L15.7068 11.0843C15.5283 10.8897 15.3113 10.7344 15.0695 10.6283C14.8277 10.5222 14.5664 10.4677 14.3024 10.4683C14.0383 10.4688 13.7773 10.5244 13.5359 10.6314C13.2945 10.7385 13.0781 10.8947 12.9005 11.09V11.09Z" stroke="#0198D7" stroke-width="2" stroke-linecap="round" stroke-linejoin="round"/>
</svg>
