<svg width="14" height="22" viewBox="0 0 14 22" fill="none" xmlns="http://www.w3.org/2000/svg">
<path d="M11.0001 5.00003C11.0001 2.79087 9.20919 1 7.00003 1C4.79087 1 3 2.79087 3 5.00003V10.0001C3 12.2092 4.79087 14.0001 7.00003 14.0001C9.20919 14.0001 11.0001 12.2092 11.0001 10.0001V5.00003Z" stroke="#424242" stroke-width="2" stroke-linecap="round" stroke-linejoin="round"/>
<path d="M13.0001 15.2925C12.2501 16.1447 11.327 16.827 10.2923 17.294C9.25763 17.761 8.13523 18.0018 7.00005 18.0005C5.86486 18.0018 4.74246 17.761 3.70778 17.294C2.6731 16.827 1.74996 16.1447 1 15.2925" stroke="#424242" stroke-width="2" stroke-linecap="round" stroke-linejoin="round"/>
<path d="M7 18V21" stroke="#424242" stroke-width="2" stroke-linecap="round" stroke-linejoin="round"/>
<path d="M5.00195 21H9.00198" stroke="#424242" stroke-width="2" stroke-linecap="round" stroke-linejoin="round"/>
</svg>
