<svg width="23" height="17" viewBox="0 0 23 17" fill="none" xmlns="http://www.w3.org/2000/svg">
<path d="M20.4119 0C21.0983 0 21.7566 0.272679 22.2419 0.758051C22.7273 1.24342 23 1.90173 23 2.58815V13.5216C23 14.208 22.7273 14.8664 22.2419 15.3517C21.7566 15.8371 21.0983 16.1098 20.4119 16.1098H2.58815C2.24827 16.1098 1.91171 16.0428 1.59771 15.9128C1.2837 15.7827 0.998382 15.5921 0.758051 15.3517C0.517719 15.1114 0.327078 14.8261 0.197011 14.5121C0.0669444 14.1981 0 13.8615 0 13.5216V2.58815C0 1.90173 0.272679 1.24342 0.758051 0.758051C1.24342 0.272679 1.90173 0 2.58815 0H20.4119ZM20.4119 1.72543H2.58815C2.35934 1.72543 2.13991 1.81632 1.97811 1.97811C1.81632 2.13991 1.72543 2.35934 1.72543 2.58815V13.5216C1.72543 13.9978 2.11193 14.3843 2.58815 14.3843H20.4119C20.6407 14.3843 20.8601 14.2935 21.0219 14.1317C21.1837 13.9699 21.2746 13.7504 21.2746 13.5216V2.58815C21.2746 2.35934 21.1837 2.13991 21.0219 1.97811C20.8601 1.81632 20.6407 1.72543 20.4119 1.72543ZM5.46387 10.9277H17.5419C17.7605 10.9278 17.9709 11.0108 18.1306 11.1601C18.2903 11.3093 18.3874 11.5136 18.4023 11.7316C18.4172 11.9497 18.3488 12.1653 18.2109 12.3349C18.0729 12.5044 17.8758 12.6153 17.6592 12.6451L17.5419 12.6532H5.46387C5.24528 12.6531 5.03488 12.5701 4.87516 12.4208C4.71544 12.2716 4.61832 12.0673 4.60342 11.8493C4.58852 11.6312 4.65696 11.4156 4.7949 11.246C4.93284 11.0765 5.12999 10.9656 5.34654 10.9358L5.46387 10.9277H17.5419H5.46387ZM16.6792 6.90173C16.9842 6.90173 17.2768 7.02292 17.4925 7.23864C17.7083 7.45436 17.8295 7.74694 17.8295 8.05201C17.8295 8.35709 17.7083 8.64967 17.4925 8.86539C17.2768 9.08111 16.9842 9.2023 16.6792 9.2023C16.3741 9.2023 16.0815 9.08111 15.8658 8.86539C15.6501 8.64967 15.5289 8.35709 15.5289 8.05201C15.5289 7.74694 15.6501 7.45436 15.8658 7.23864C16.0815 7.02292 16.3741 6.90173 16.6792 6.90173ZM9.7832 6.90173C10.0883 6.90173 10.3809 7.02292 10.5966 7.23864C10.8123 7.45436 10.9335 7.74694 10.9335 8.05201C10.9335 8.35709 10.8123 8.64967 10.5966 8.86539C10.3809 9.08111 10.0883 9.2023 9.7832 9.2023C9.47812 9.2023 9.18554 9.08111 8.96982 8.86539C8.7541 8.64967 8.63291 8.35709 8.63291 8.05201C8.63291 7.74694 8.7541 7.45436 8.96982 7.23864C9.18554 7.02292 9.47812 6.90173 9.7832 6.90173ZM6.33233 6.90173C6.63741 6.90173 6.92999 7.02292 7.14571 7.23864C7.36143 7.45436 7.48262 7.74694 7.48262 8.05201C7.48262 8.35709 7.36143 8.64967 7.14571 8.86539C6.92999 9.08111 6.63741 9.2023 6.33233 9.2023C6.02726 9.2023 5.73468 9.08111 5.51896 8.86539C5.30324 8.64967 5.18205 8.35709 5.18205 8.05201C5.18205 7.74694 5.30324 7.45436 5.51896 7.23864C5.73468 7.02292 6.02726 6.90173 6.33233 6.90173ZM13.2341 6.90173C13.5391 6.90173 13.8317 7.02292 14.0474 7.23864C14.2632 7.45436 14.3843 7.74694 14.3843 8.05201C14.3843 8.35709 14.2632 8.64967 14.0474 8.86539C13.8317 9.08111 13.5391 9.2023 13.2341 9.2023C12.929 9.2023 12.6364 9.08111 12.4207 8.86539C12.205 8.64967 12.0838 8.35709 12.0838 8.05201C12.0838 7.74694 12.205 7.45436 12.4207 7.23864C12.6364 7.02292 12.929 6.90173 13.2341 6.90173ZM4.60115 3.45086C4.90623 3.45086 5.19881 3.57205 5.41453 3.78777C5.63025 4.0035 5.75144 4.29608 5.75144 4.60115C5.75144 4.90623 5.63025 5.19881 5.41453 5.41453C5.19881 5.63025 4.90623 5.75144 4.60115 5.75144C4.29607 5.75144 4.00349 5.63025 3.78777 5.41453C3.57205 5.19881 3.45086 4.90623 3.45086 4.60115C3.45086 4.29608 3.57205 4.0035 3.78777 3.78777C4.00349 3.57205 4.29607 3.45086 4.60115 3.45086ZM8.04626 3.45086C8.35134 3.45086 8.64392 3.57205 8.85964 3.78777C9.07536 4.0035 9.19655 4.29608 9.19655 4.60115C9.19655 4.90623 9.07536 5.19881 8.85964 5.41453C8.64392 5.63025 8.35134 5.75144 8.04626 5.75144C7.74119 5.75144 7.44861 5.63025 7.23288 5.41453C7.01716 5.19881 6.89597 4.90623 6.89597 4.60115C6.89597 4.29608 7.01716 4.0035 7.23288 3.78777C7.44861 3.57205 7.74119 3.45086 8.04626 3.45086ZM11.4971 3.45086C11.8022 3.45086 12.0948 3.57205 12.3105 3.78777C12.5262 4.0035 12.6474 4.29608 12.6474 4.60115C12.6474 4.90623 12.5262 5.19881 12.3105 5.41453C12.0948 5.63025 11.8022 5.75144 11.4971 5.75144C11.192 5.75144 10.8995 5.63025 10.6837 5.41453C10.468 5.19881 10.3468 4.90623 10.3468 4.60115C10.3468 4.29608 10.468 4.0035 10.6837 3.78777C10.8995 3.57205 11.192 3.45086 11.4971 3.45086ZM14.948 3.45086C15.2531 3.45086 15.5456 3.57205 15.7614 3.78777C15.9771 4.0035 16.0983 4.29608 16.0983 4.60115C16.0983 4.90623 15.9771 5.19881 15.7614 5.41453C15.5456 5.63025 15.2531 5.75144 14.948 5.75144C14.6429 5.75144 14.3503 5.63025 14.1346 5.41453C13.9189 5.19881 13.7977 4.90623 13.7977 4.60115C13.7977 4.29608 13.9189 4.0035 14.1346 3.78777C14.3503 3.57205 14.6429 3.45086 14.948 3.45086ZM18.3988 3.45086C18.7039 3.45086 18.9965 3.57205 19.2122 3.78777C19.4279 4.0035 19.5491 4.29608 19.5491 4.60115C19.5491 4.90623 19.4279 5.19881 19.2122 5.41453C18.9965 5.63025 18.7039 5.75144 18.3988 5.75144C18.0938 5.75144 17.8012 5.63025 17.5855 5.41453C17.3698 5.19881 17.2486 4.90623 17.2486 4.60115C17.2486 4.29608 17.3698 4.0035 17.5855 3.78777C17.8012 3.57205 18.0938 3.45086 18.3988 3.45086Z" fill="#424242"/>
</svg>
