<svg width="11" height="8" viewBox="0 0 11 8" fill="none" xmlns="http://www.w3.org/2000/svg">
<path d="M2.7325 4.05473L4.4245 5.74673C4.52514 5.84709 4.58406 5.98184 4.5894 6.12388C4.59474 6.26592 4.54611 6.40471 4.45329 6.51236C4.36047 6.62 4.23033 6.68851 4.08906 6.70412C3.94778 6.71972 3.80583 6.68127 3.69175 6.59648L3.62875 6.54173L0.97675 3.89048L0.92575 3.83048L0.89575 3.78698L0.85825 3.71573L0.8335 3.64673L0.82225 3.59648L0.81475 3.54998L0.8125 3.47948L0.8155 3.43523L0.82675 3.36473L0.84925 3.28973L0.8845 3.21623L0.91075 3.17498C0.930217 3.14624 0.952312 3.11937 0.97675 3.09473L0.92575 3.15398C0.941361 3.13307 0.958402 3.11327 0.97675 3.09473L3.62875 0.443476C3.72925 0.343758 3.86366 0.285605 4.00515 0.280622C4.14663 0.27564 4.2848 0.324195 4.39206 0.416596C4.49933 0.508998 4.56781 0.63845 4.58383 0.779117C4.59985 0.919784 4.56224 1.06132 4.4785 1.17548L4.4245 1.23848L2.7325 2.92973H5.5C8.23825 2.92973 10.099 4.48748 10.1845 6.70748L10.1875 6.86723C10.1875 7.01641 10.1282 7.15948 10.0227 7.26497C9.91726 7.37046 9.77418 7.42973 9.625 7.42973C9.47582 7.42973 9.33274 7.37046 9.22725 7.26497C9.12176 7.15948 9.0625 7.01641 9.0625 6.86723C9.0625 5.27123 7.7935 4.12373 5.69275 4.05773L5.5 4.05473H2.7325L4.4245 5.74673L2.7325 4.05473Z" fill="#3A7DFF"/>
</svg>
