<svg width="20" height="15" viewBox="0 0 20 15" fill="none" xmlns="http://www.w3.org/2000/svg">
<path d="M4.096 7.91904L7.7056 11.469C7.92031 11.6795 8.046 11.9623 8.05739 12.2603C8.06878 12.5583 7.96504 12.8495 7.76702 13.0753C7.569 13.3011 7.29138 13.4449 6.98999 13.4776C6.68859 13.5104 6.38577 13.4297 6.1424 13.2518L6.008 13.1369L0.3504 7.57443L0.2416 7.44855L0.1776 7.35728L0.0976 7.2078L0.0448 7.06303L0.0208 6.9576L0.00480003 6.86004L0 6.71213L0.00639992 6.61929L0.0304001 6.47138L0.0784 6.31402L0.1536 6.15981L0.2096 6.07327C0.251129 6.01298 0.298265 5.95661 0.3504 5.9049L0.2416 6.02921C0.274903 5.98535 0.311257 5.94381 0.3504 5.9049L6.008 0.342409C6.2224 0.133195 6.50913 0.0111854 6.81098 0.000731725C7.11282 -0.00972194 7.40757 0.0921492 7.6364 0.286013C7.86523 0.479878 8.01132 0.751476 8.0455 1.0466C8.07968 1.34173 7.99944 1.63868 7.8208 1.87819L7.7056 2.01037L4.096 5.55872H10C15.8416 5.55872 19.8112 8.82697 19.9936 13.4847L20 13.8198C20 14.1328 19.8736 14.433 19.6485 14.6543C19.4235 14.8757 19.1183 15 18.8 15C18.4817 15 18.1765 14.8757 17.9515 14.6543C17.7264 14.433 17.6 14.1328 17.6 13.8198C17.6 10.4713 14.8928 8.0638 10.4112 7.92533L10 7.91904H4.096L7.7056 11.469L4.096 7.91904Z" fill="white"/>
</svg>
