<svg width="135" height="135" viewBox="0 0 135 135" fill="none" xmlns="http://www.w3.org/2000/svg">
<path d="M116.388 36.976V126.303C116.388 131.107 112.491 135 107.691 135H27.309C22.5052 135 18.6123 131.107 18.6123 126.303V8.69669C18.612 3.89285 22.5049 0 27.309 0H79.4119L116.388 36.976Z" fill="#E24C3F"/>
<path d="M84.457 36.1726L116.388 49.3275V36.976L98.2842 31.6306L84.457 36.1726Z" fill="#C74F45"/>
<path d="M116.388 36.976H88.1088C83.3047 36.976 79.4121 33.0832 79.4121 28.2793V0L116.388 36.976Z" fill="#FF7063"/>
<path d="M34.541 96.8784V64.3701H50.6314C52.1587 64.3701 53.5154 64.62 54.7008 65.1185C55.8855 65.6176 56.8679 66.3114 57.6477 67.2001C58.4268 68.0888 59.0196 69.1492 59.4251 70.3808C59.8299 71.6129 60.033 72.9766 60.033 74.4734C60.033 75.9702 59.8379 77.3735 59.4482 78.683C59.058 79.9927 58.4812 81.1235 57.7179 82.0743C56.9531 83.0257 55.9792 83.7743 54.7944 84.3195C53.6089 84.8656 52.2217 85.138 50.6313 85.138H39.8264V96.8785H34.541V96.8784ZM39.8266 69.2347V80.1798H48.8075C50.8654 80.1798 52.3695 79.7201 53.3211 78.8C54.2718 77.8806 54.7476 76.4378 54.7476 74.4732C54.7476 72.6022 54.2407 71.2619 53.2275 70.4505C52.2139 69.6401 50.7404 69.2345 48.8075 69.2345H39.8266V69.2347Z" fill="white"/>
<path d="M79.0708 65.2119L84.1692 63.8086V91.4991C84.1692 92.0919 84.1995 92.6217 84.2625 93.0895C84.3247 93.5572 84.403 93.9943 84.4962 94.3992C84.6208 94.7734 84.761 95.1711 84.9174 95.592C85.0731 96.013 85.2753 96.442 85.5254 96.8783H80.1463C79.9592 96.5669 79.7721 96.1459 79.585 95.6155C79.4597 95.054 79.3665 94.5556 79.3043 94.1187C78.369 95.054 77.3004 95.842 76.1001 96.4808C74.8994 97.1194 73.6131 97.4396 72.2414 97.4396C70.6195 97.4396 69.1932 97.1744 67.9614 96.6444C66.7293 96.1146 65.693 95.3815 64.8509 94.4462C64.0093 93.5108 63.3778 92.3961 62.9566 91.1018C62.5358 89.8082 62.3252 88.4121 62.3252 86.9153V84.6701C62.3252 80.7104 63.3695 77.7321 65.4592 75.7362C67.5478 73.7409 70.5884 72.7427 74.58 72.7427C76.1077 72.7427 77.6043 73.0393 79.0706 73.6313L79.0708 65.2119ZM79.0708 78.3556C78.3843 77.9507 77.5973 77.6702 76.7086 77.5136C75.82 77.358 74.9851 77.2798 74.206 77.2798C72.9587 77.2798 71.9061 77.4516 71.0489 77.7941C70.1909 78.1378 69.4893 78.6208 68.944 79.2443C68.3978 79.8683 68.0087 80.6167 67.7744 81.4895C67.5406 82.3628 67.4237 83.3138 67.4237 84.3428V86.0735C67.4237 86.9468 67.4858 87.7968 67.6108 88.6227C67.7349 89.4492 67.977 90.1743 68.3358 90.7975C68.6937 91.4218 69.1851 91.9281 69.8089 92.3176C70.4324 92.708 71.243 92.9024 72.2414 92.9024C72.8963 92.9024 73.5429 92.7934 74.1827 92.5749C74.8213 92.3571 75.4376 92.0686 76.0304 91.7097C76.6224 91.3515 77.1763 90.9539 77.6906 90.5168C78.205 90.0804 78.6651 89.6281 79.0708 89.1605V78.3556Z" fill="white"/>
<path d="M90.6698 70.6844C90.6698 69.8119 90.7868 68.9619 91.0209 68.1352C91.2546 67.3094 91.6208 66.5764 92.1198 65.9368C92.6183 65.2982 93.2734 64.7835 94.0842 64.3934C94.8947 64.0039 95.8615 63.8086 96.9845 63.8086C97.5143 63.8086 98.1141 63.8634 98.7851 63.9724C99.4556 64.082 100.04 64.2143 100.539 64.3701V68.3926H98.6682C97.7012 68.3926 96.9765 68.6578 96.4935 69.1878C96.0098 69.7184 95.7685 70.4507 95.7685 71.3862V73.304H100.306L98.9493 77.5136H95.7687V96.8783H90.6702V77.5136H87.7236V73.304H90.6702V70.6844H90.6698Z" fill="white"/>
</svg>
