<svg width="24" height="21" viewBox="0 0 24 21" fill="none" xmlns="http://www.w3.org/2000/svg">
<path d="M5.86121 3.02316L5.82969 3.12069L5.42242 4.38075L5.40004 4.45H5.32727H4.1C3.03913 4.45 2.02172 4.87143 1.27157 5.62157C0.521427 6.37172 0.1 7.38913 0.1 8.45V16.65C0.1 17.7109 0.521428 18.7283 1.27157 19.4784C2.02172 20.2286 3.03913 20.65 4.1 20.65H19.1333C20.1942 20.65 21.2116 20.2286 21.9618 19.4784C22.7119 18.7283 23.1333 17.7109 23.1333 16.65V8.45C23.1333 7.38913 22.7119 6.37172 21.9618 5.62157C21.2116 4.87143 20.1942 4.45 19.1333 4.45H17.9047H17.8319L17.8095 4.38066L17.4036 3.12067L5.86121 3.02316ZM5.86121 3.02316C6.12989 2.259 6.62462 1.59356 7.28084 1.11594C7.96482 0.618105 8.78902 0.349945 9.63499 0.35H13.597C14.4429 0.349945 15.2672 0.618105 15.9511 1.11594C16.6351 1.61375 17.1436 2.3156 17.4036 3.12059L5.86121 3.02316ZM9.63637 2.88333L9.6363 2.88333C9.32621 2.88355 9.02418 2.98205 8.77357 3.16466C8.52299 3.34727 8.33672 3.60458 8.24152 3.89967C8.24151 3.89969 8.2415 3.89971 8.2415 3.89973L7.24437 6.98333H4.1C3.71102 6.98333 3.33796 7.13786 3.06291 7.41291C2.78786 7.68796 2.63333 8.06102 2.63333 8.45V16.65C2.63333 17.039 2.78786 17.412 3.06291 17.6871C3.33796 17.9621 3.71102 18.1167 4.1 18.1167H19.1333C19.5223 18.1167 19.8954 17.9621 20.1704 17.6871C20.4455 17.412 20.6 17.039 20.6 16.65V8.45C20.6 8.06102 20.4455 7.68796 20.1704 7.41291C19.8954 7.13786 19.5223 6.98333 19.1333 6.98333H15.9876L14.9918 3.89973C14.9918 3.89972 14.9918 3.89971 14.9918 3.8997C14.8966 3.60461 14.7104 3.34727 14.4598 3.16466C14.2092 2.98205 13.9071 2.88355 13.597 2.88333H13.597L9.63637 2.88333Z" fill="#0198D7" stroke="white" stroke-width="0.2"/>
<path d="M7.28853 13.6591C7.05317 13.0909 6.93203 12.4819 6.93203 11.8668C6.93203 10.6247 7.42545 9.43351 8.30375 8.55521C9.18204 7.67692 10.3733 7.1835 11.6154 7.1835C12.8575 7.1835 14.0487 7.67692 14.927 8.55521C15.8053 9.43351 16.2987 10.6247 16.2987 11.8668C16.2987 12.4819 16.1776 13.0909 15.9422 13.6591C15.7068 14.2273 15.3619 14.7436 14.927 15.1784C14.4921 15.6133 13.9758 15.9583 13.4076 16.1937C12.8394 16.429 12.2304 16.5502 11.6154 16.5502C11.0003 16.5502 10.3913 16.429 9.82313 16.1937C9.25492 15.9583 8.73864 15.6133 8.30375 15.1784C7.86886 14.7436 7.52389 14.2273 7.28853 13.6591ZM13.1356 13.3871C13.5388 12.9839 13.7654 12.437 13.7654 11.8668C13.7654 11.2966 13.5388 10.7498 13.1356 10.3465C12.7324 9.94335 12.1856 9.71683 11.6154 9.71683C11.0451 9.71683 10.4983 9.94335 10.0951 10.3465C9.69188 10.7498 9.46536 11.2966 9.46536 11.8668C9.46536 12.437 9.69188 12.9839 10.0951 13.3871C10.4983 13.7903 11.0451 14.0168 11.6154 14.0168C12.1856 14.0168 12.7324 13.7903 13.1356 13.3871Z" fill="#0198D7" stroke="white" stroke-width="0.2"/>
</svg>
