<svg width="134" height="135" viewBox="0 0 134 135" fill="none" xmlns="http://www.w3.org/2000/svg">
<g clip-path="url(#clip0_799_10465)">
<path d="M97.7088 30.9487C96.167 30.9487 94.917 32.208 94.917 33.7613V50.6363C94.917 52.1896 96.167 53.4489 97.7088 53.4489H114.459C116.001 53.4489 117.251 52.1896 117.251 50.6363C117.25 39.7633 108.501 30.9487 97.7088 30.9487Z" fill="#FF5722"/>
<path d="M97.7087 59.0739C93.0834 59.0739 89.3337 55.2962 89.3337 50.6364V36.8608C78.6731 38.3886 71.2605 48.3337 72.7768 59.0739C74.2932 69.814 84.1648 77.282 94.8254 75.7543C103.413 74.5235 110.161 67.7255 111.382 59.0739H97.7087Z" fill="#FF5722"/>
<path d="M77.1171 3.43123C76.4547 2.88912 75.5827 2.68188 74.7499 2.86882L2.16663 19.7438C0.889183 20.0397 -0.0121764 21.1909 0.00012437 22.5113V118.136C0.000647808 119.524 1.00591 120.704 2.36737 120.915L74.9506 132.165C76.4746 132.401 77.8999 131.348 78.1342 129.813C78.1556 129.672 78.1666 129.529 78.1666 129.387V5.63632C78.1692 4.7786 77.7827 3.96675 77.1171 3.43123Z" fill="#FF5722"/>
<path d="M131.208 120.949H75.3748C73.833 120.949 72.583 119.689 72.583 118.136C72.583 116.583 73.833 115.323 75.3748 115.323H128.416V19.6986H75.3748C73.833 19.6986 72.583 18.4393 72.583 16.8861C72.583 15.3328 73.833 14.0737 75.3748 14.0737H131.208C132.75 14.0737 134 15.333 134 16.8863V118.136C134 119.69 132.75 120.949 131.208 120.949Z" fill="#FF5722"/>
<path d="M114.458 104.074H75.3748C73.833 104.074 72.583 102.814 72.583 101.261C72.583 99.7078 73.833 98.4485 75.3748 98.4485H114.458C116 98.4485 117.25 99.7078 117.25 101.261C117.25 102.815 116 104.074 114.458 104.074Z" fill="#FF5722"/>
<path d="M114.458 87.1987H75.3748C73.833 87.1987 72.583 85.9394 72.583 84.3861C72.583 82.8328 73.833 81.5735 75.3748 81.5735H114.458C116 81.5735 117.25 82.8328 117.25 84.3861C117.25 85.9396 116 87.1987 114.458 87.1987Z" fill="#FF5722"/>
<path d="M25.1248 92.824C23.583 92.824 22.333 91.5647 22.333 90.0114V45.0113C22.333 43.458 23.583 42.1987 25.1248 42.1987H36.2915C44.0004 42.1987 50.2498 48.4947 50.2498 56.2611V61.8861C50.2498 69.6525 44.0004 75.9485 36.2915 75.9485H27.9165V90.0109C27.9165 91.5647 26.6668 92.824 25.1248 92.824ZM27.9165 70.3238H36.2915C40.9169 70.3238 44.6665 66.5462 44.6665 61.8863V56.2614C44.6665 51.6015 40.9169 47.8239 36.2915 47.8239H27.9165V70.3238Z" fill="#FAFAFA"/>
</g>
<defs>
<clipPath id="clip0_799_10465">
<rect width="134" height="135" fill="white"/>
</clipPath>
</defs>
</svg>
