<svg width="13" height="10" viewBox="0 0 13 10" fill="none" xmlns="http://www.w3.org/2000/svg">
<path d="M10.3516 0.310941C10.5634 0.109297 10.8452 -0.00218035 11.1377 3.23196e-05C11.4301 0.00224499 11.7102 0.117975 11.919 0.322801C12.1277 0.527627 12.2487 0.805528 12.2564 1.09787C12.2641 1.3902 12.158 1.67411 11.9604 1.88968L5.96118 9.39245C5.85803 9.50356 5.73352 9.59273 5.59511 9.65462C5.45671 9.71651 5.30724 9.74986 5.15565 9.75267C5.00406 9.75548 4.85346 9.72768 4.71286 9.67096C4.57226 9.61423 4.44454 9.52974 4.33734 9.42252L0.358913 5.4441C0.24812 5.34086 0.159256 5.21637 0.0976224 5.07804C0.0359885 4.93971 0.002847 4.79039 0.000175495 4.63898C-0.00249601 4.48756 0.0253573 4.33716 0.0820731 4.19675C0.138789 4.05633 0.223206 3.92878 0.330288 3.8217C0.437369 3.71462 0.564922 3.6302 0.705337 3.57348C0.845752 3.51677 0.996152 3.48892 1.14756 3.49159C1.29898 3.49426 1.4483 3.5274 1.58663 3.58903C1.72495 3.65067 1.84945 3.73953 1.95269 3.85032L5.10115 6.99728L10.323 0.34402C10.3324 0.332444 10.3425 0.3214 10.3531 0.310941H10.3516Z" fill="#808080"/>
</svg>
