<svg width="135" height="135" viewBox="0 0 135 135" fill="none" xmlns="http://www.w3.org/2000/svg">
<g clip-path="url(#clip0_799_10419)">
<path d="M77.6926 3.43123C77.0253 2.88912 76.1467 2.68188 75.3077 2.86882L2.1828 19.7438C0.895819 20.0397 -0.0122673 21.1909 0.000125298 22.5113V118.136C0.000652642 119.524 1.01342 120.704 2.38504 120.915L75.5099 132.165C77.0453 132.401 78.4813 131.348 78.7173 129.813C78.7389 129.672 78.7499 129.529 78.7499 129.387V5.63632C78.7526 4.7786 78.3632 3.96675 77.6926 3.43123Z" fill="#1565C0"/>
<path d="M132.188 120.949H75.9376C74.3843 120.949 73.125 119.689 73.125 118.136C73.125 116.583 74.3843 115.323 75.9376 115.323H129.375V19.6986H75.9376C74.3843 19.6986 73.125 18.4393 73.125 16.8861C73.125 15.3328 74.3843 14.0737 75.9376 14.0737H132.187C133.741 14.0737 135 15.333 135 16.8863V118.136C135 119.69 133.741 120.949 132.188 120.949Z" fill="#1565C0"/>
<path d="M47.8125 92.8241C46.5593 92.8228 45.4585 91.9922 45.1125 90.7878L36.5625 60.8739L28.0124 90.7878C27.3948 92.2804 25.6841 92.9899 24.1912 92.3724C23.4735 92.0755 22.9035 91.5055 22.6066 90.7878L11.3567 51.4128C10.8858 49.9326 11.7043 48.3511 13.1845 47.8802C14.6648 47.4093 16.2463 48.2277 16.7172 49.7079C16.7338 49.7602 16.7488 49.8129 16.7625 49.8659L25.3124 79.7739L33.8624 49.8603C34.48 48.3677 36.1907 47.6582 37.6836 48.2757C38.4013 48.5726 38.9714 49.1426 39.2682 49.8603L47.8125 79.7742L56.3626 49.8661C56.7674 48.3859 58.2956 47.5139 59.7759 47.9187C59.7969 47.9245 59.8178 47.9305 59.8389 47.9366C61.3313 48.3643 62.1948 49.9202 61.7682 51.4128L50.5181 90.7878C50.1716 91.9943 49.0676 92.8252 47.8125 92.8241Z" fill="#FAFAFA"/>
<path d="M120.938 36.5739H75.9376C74.3843 36.5739 73.125 35.3146 73.125 33.7613C73.125 32.208 74.3843 30.9487 75.9376 30.9487H120.938C122.491 30.9487 123.75 32.208 123.75 33.7613C123.75 35.3149 122.491 36.5739 120.938 36.5739Z" fill="#1565C0"/>
<path d="M120.938 53.4489H75.9376C74.3843 53.4489 73.125 52.1896 73.125 50.6363C73.125 49.083 74.3843 47.8237 75.9376 47.8237H120.938C122.491 47.8237 123.75 49.083 123.75 50.6363C123.75 52.1896 122.491 53.4489 120.938 53.4489Z" fill="#1565C0"/>
<path d="M120.938 70.3239H75.9376C74.3843 70.3239 73.125 69.0646 73.125 67.5113C73.125 65.958 74.3843 64.6987 75.9376 64.6987H120.938C122.491 64.6987 123.75 65.958 123.75 67.5113C123.75 69.0649 122.491 70.3239 120.938 70.3239Z" fill="#1565C0"/>
<path d="M120.938 87.1989H75.9376C74.3843 87.1989 73.125 85.9396 73.125 84.3863C73.125 82.833 74.3843 81.5737 75.9376 81.5737H120.938C122.491 81.5737 123.75 82.833 123.75 84.3863C123.75 85.9399 122.491 87.1989 120.938 87.1989Z" fill="#1565C0"/>
<path d="M120.938 104.074H75.9376C74.3843 104.074 73.125 102.815 73.125 101.261C73.125 99.708 74.3843 98.4487 75.9376 98.4487H120.938C122.491 98.4487 123.75 99.708 123.75 101.261C123.75 102.815 122.491 104.074 120.938 104.074Z" fill="#1565C0"/>
</g>
<defs>
<clipPath id="clip0_799_10419">
<rect width="135" height="135" fill="white"/>
</clipPath>
</defs>
</svg>
