<svg width="12" height="12" viewBox="0 0 12 12" fill="none" xmlns="http://www.w3.org/2000/svg">
<path d="M7.89515 5.99933L11.5633 2.33122C12.0865 1.80797 12.0865 0.959633 11.5633 0.436383C11.04 -0.0868672 10.1917 -0.0868672 9.66842 0.436383L6.00031 4.10449L2.3322 0.436383C1.80895 -0.0868672 0.960609 -0.0868672 0.437359 0.436383C-0.0858906 0.959633 -0.0858906 1.80797 0.437359 2.33122L4.10547 5.99933L0.437359 9.66744C-0.0858906 10.1907 -0.0858906 11.039 0.437359 11.5623C0.698984 11.8239 1.04188 11.9547 1.38477 11.9547C1.72766 11.9547 2.07057 11.8239 2.33217 11.5623L6.00031 7.89417L9.66842 11.5623C9.93004 11.8239 10.2729 11.9547 10.6158 11.9547C10.9587 11.9547 11.3016 11.8239 11.5632 11.5623C12.0865 11.039 12.0865 10.1907 11.5632 9.66744L7.89515 5.99933Z" fill="white"/>
</svg>
